<svg xmlns="http://www.w3.org/2000/svg" viewBox="0 0 48 48" fill="white"><path d="M18 4C12.486 4 8 8.486 8 14C8 19.514 12.486 24 18 24C20.252 24 22.326 23.241469 24 21.980469L24 17.587891C22.775 19.627891 20.548 21 18 21C14.141 21 11 17.859 11 14C11 10.141 14.141 7 18 7C20.548 7 22.775 8.3721094 24 10.412109L24 8.5C24 7.732 24.140719 6.9975 24.386719 6.3125C22.652719 4.8695 20.427 4 18 4 z M 30.5 4C28.032499 4 26 6.0324991 26 8.5L26 22.5 A 1.50015 1.50015 0 0 0 28.332031 23.748047L33.955078 20L41.5 20C43.967501 20 46 17.967501 46 15.5L46 8.5C46 6.0324991 43.967501 4 41.5 4L30.5 4 z M 30.5 7L41.5 7C42.346499 7 43 7.6535009 43 8.5L43 15.5C43 16.346499 42.346499 17 41.5 17L33.5 17 A 1.50015 1.50015 0 0 0 32.667969 17.251953L29 19.697266L29 8.5C29 7.6535009 29.653501 7 30.5 7 z M 6.5 28C4.019 28 2 30.019 2 32.5L2 34C2 39.607 9.028 44 18 44C26.972 44 34 39.607 34 34L34 32.5C34 30.019 31.981 28 29.5 28L6.5 28 z M 6.5 31L29.5 31C30.327 31 31 31.673 31 32.5L31 34C31 37.794 25.047 41 18 41C10.953 41 5 37.794 5 34L5 32.5C5 31.673 5.673 31 6.5 31 z"/></svg>