<svg xmlns="http://www.w3.org/2000/svg" viewBox="0 0 48 48" fill="white"><path d="M30.626953 1.1503906 A 1.50015 1.50015 0 0 0 29.595703 1.6035156L26.033203 5.1660156C25.717553 5.4816653 25.347992 5.7331906 24.941406 5.90625 A 1.50015 1.50015 0 0 0 24.9375 5.9082031L18.244141 8.7753906C16.374112 9.5768315 14.929821 11.159755 14.269531 13.140625 A 1.50015 1.50015 0 0 0 14.242188 13.226562L13.396484 16.392578 A 1.50015 1.50015 0 0 0 13.332031 16.455078L0.89648438 28.888672 A 1.5005305 1.5005305 0 1 0 3.0195312 31.009766L11.044922 22.984375L10.775391 23.638672 A 1.50015 1.50015 0 0 0 10.738281 23.736328C10.150545 25.499537 10.859627 27.295013 12.103516 28.304688C13.347404 29.31436 15.276752 29.631605 16.892578 28.662109C17.523984 28.283266 18.15605 27.795916 18.765625 27.1875 A 1.50015 1.50015 0 0 0 18.767578 27.1875C21.894468 24.06061 24.873781 20.46692 25.332031 19.917969C26.265914 19.915469 32.765884 19.897129 34.566406 19.917969C36.065392 19.935289 36.548677 20.434195 36.707031 20.853516C36.865386 21.272836 36.797161 22.061871 35.816406 23.048828 A 1.50015 1.50015 0 0 0 35.626953 24.931641C36.462308 26.202573 36.407917 26.85883 36.169922 27.388672 A 1.50015 1.50015 0 0 0 36.013672 27.705078 A 1.50015 1.50015 0 0 0 36.011719 27.708984C36.009252 27.713224 36.008333 27.718421 36.005859 27.722656C35.655004 28.323319 35.087891 28.673828 35.087891 28.673828 A 1.50015 1.50015 0 0 0 34.740234 31.005859C34.740234 31.005859 35.250417 31.587425 35.449219 32.326172C35.64802 33.064919 35.762284 33.741545 34.365234 34.863281 A 1.50015 1.50015 0 0 0 34.074219 36.890625C34.736746 37.841542 34.65652 38.677008 34.125 39.476562C33.593481 40.276119 32.509924 40.960222 30.966797 40.96875C28.912525 40.98079 22.236499 41.03461 18.933594 41 A 1.50015 1.50015 0 0 0 18.931641 41C18.290994 40.9935 17.500435 41.04446 16.685547 41.220703C15.870659 41.396945 15.006415 41.651788 14.265625 42.392578L13.333984 43.324219 A 1.50015 1.50015 0 1 0 15.455078 45.445312L16.386719 44.513672C16.406929 44.493462 16.798951 44.265102 17.320312 44.152344C17.841037 44.039723 18.465109 43.995675 18.900391 44C22.277485 44.03539 28.944647 43.98071 30.984375 43.96875C33.422248 43.95528 35.492769 42.841867 36.625 41.138672C37.543559 39.7569 37.732123 37.945218 37.085938 36.298828C38.425336 34.713815 38.703112 32.867751 38.347656 31.546875C38.200559 31.000263 37.963669 30.630001 37.744141 30.236328C38.036984 29.937272 38.336288 29.683789 38.597656 29.236328C38.626402 29.187115 38.648775 29.129647 38.675781 29.078125C38.949331 28.813659 41.83487 26.021946 43.476562 24.273438C44.67306 23.000394 45.499266 21.335245 45.634766 19.273438L45.634766 19.271484C45.667456 18.779769 45.795726 17.989247 46.001953 17.296875C46.208377 16.603841 46.552067 16.00262 46.65625 15.898438L47.273438 15.28125 A 1.50015 1.50015 0 0 0 46.183594 12.707031 A 1.50015 1.50015 0 0 0 45.152344 13.160156L44.535156 13.777344C43.751339 14.561161 43.406779 15.50194 43.126953 16.441406C42.847127 17.380872 42.691086 18.311832 42.640625 19.074219 A 1.50015 1.50015 0 0 0 42.640625 19.076172C42.545715 20.525423 42.126125 21.330213 41.291016 22.21875C40.634003 22.91856 39.674614 23.872318 38.794922 24.746094C38.724811 24.554826 38.653631 24.363413 38.5625 24.169922C39.536379 22.782658 40.056699 21.230895 39.513672 19.792969C38.842527 18.015789 36.910577 16.944649 34.601562 16.917969C32.556804 16.894299 24.662109 16.917969 24.662109 16.917969 A 1.50015 1.50015 0 0 0 23.513672 17.458984C23.513672 17.458984 19.842987 21.865997 16.644531 25.064453C16.202529 25.505423 15.767815 25.836967 15.349609 26.087891C14.820435 26.405395 14.386002 26.292686 13.994141 25.974609C13.60438 25.658238 13.408719 25.230078 13.583984 24.693359L15.525391 19.994141 A 1.50015 1.50015 0 0 0 15.587891 19.808594L17.119141 14.083984C17.521717 12.882457 18.343929 11.996854 19.425781 11.533203L26.115234 8.6660156C26.878649 8.3410751 27.569947 7.8714597 28.154297 7.2871094L31.716797 3.7265625 A 1.50015 1.50015 0 0 0 30.626953 1.1503906 z"/></svg>