<svg xmlns="http://www.w3.org/2000/svg" viewBox="0 0 48 48" fill="white"><path d="M9.5 4C7.0324991 4 5 6.0324991 5 8.5L5 37.5 A 1.50015 1.50015 0 0 0 5.0234375 37.728516C5.1465046 40.089678 7.1106165 42 9.5 42L38.5 42C40.967501 42 43 39.967501 43 37.5L43 14.5C43 12.032499 40.967501 10 38.5 10L14 10L14 6.5C14 5.1364058 12.863594 4 11.5 4L9.5 4 z M 9.5 7L11 7L11 11.253906 A 1.50015 1.50015 0 0 0 11 11.740234L11 33L9.5 33C8.9694092 33 8.4744795 33.134564 8 33.306641L8 8.5C8 7.6535009 8.6535009 7 9.5 7 z M 14 13L38.5 13C39.346499 13 40 13.653501 40 14.5L40 37.5C40 38.346499 39.346499 39 38.5 39L9.5 39C8.6535009 39 8 38.346499 8 37.5C8 36.653501 8.6535009 36 9.5 36L11.5 36C12.863594 36 14 34.863594 14 33.5L14 13 z M 35.470703 17.986328 A 1.50015 1.50015 0 0 0 35.310547 18L31.5 18 A 1.50015 1.50015 0 1 0 31.5 21L31.878906 21L28.5 24.378906L24.560547 20.439453 A 1.50015 1.50015 0 0 0 22.439453 20.439453L17.439453 25.439453 A 1.50015 1.50015 0 1 0 19.560547 27.560547L23.5 23.621094L27.439453 27.560547 A 1.50015 1.50015 0 0 0 29.560547 27.560547L34 23.121094L34 23.5 A 1.50015 1.50015 0 1 0 37 23.5L37 19.673828 A 1.50015 1.50015 0 0 0 35.470703 17.986328 z M 18.5 31 A 1.50015 1.50015 0 1 0 18.5 34L35.5 34 A 1.50015 1.50015 0 1 0 35.5 31L18.5 31 z"/></svg>