<svg xmlns="http://www.w3.org/2000/svg" viewBox="0 0 48 48" fill="white "><path d="M10 6 A 4 4 0 0 0 10 14 A 4 4 0 0 0 10 6 z M 14.462891 6C15.203891 6.826 15.718156 7.857 15.910156 9L39 9L39 28L16 28L16 31L42.5 31C43.328 31 44 30.329 44 29.5C44 28.671 43.328 28 42.5 28L42 28L42 7.5C42 6.671 41.328 6 40.5 6L14.462891 6 z M 17.5 11 A 1.50015 1.50015 0 1 0 17.5 14L20.5 14 A 1.50015 1.50015 0 1 0 20.5 11L17.5 11 z M 25.5 11 A 1.50015 1.50015 0 1 0 25.5 14L34.5 14 A 1.50015 1.50015 0 1 0 34.5 11L25.5 11 z M 11.470703 15.984375 A 1.50015 1.50015 0 0 0 11.150391 16.015625C11.09956 16.013065 11.051467 16 11 16L8 16C6.343 16 5 17.343 5 19L5 31L5 40.5 A 1.50015 1.50015 0 1 0 8 40.5L8 31L11 31L11 40.5 A 1.50015 1.50015 0 1 0 14 40.5L14 27.5L14 19.773438L18.087891 20.941406 A 1.50015 1.50015 0 0 0 19.056641 20.892578L24.056641 18.892578 A 1.50015 1.50015 0 0 0 23.482422 15.992188 A 1.50015 1.50015 0 0 0 22.943359 16.107422L18.419922 17.916016L11.912109 16.058594 A 1.50015 1.50015 0 0 0 11.470703 15.984375 z M 31.5 16 A 1.50015 1.50015 0 1 0 31.5 19L34.5 19 A 1.50015 1.50015 0 1 0 34.5 16L31.5 16 z"/></svg>