<svg xmlns="http://www.w3.org/2000/svg" viewBox="0 0 48 48" fill="white"><path d="M10 6 A 4 4 0 0 0 10 14 A 4 4 0 0 0 10 6 z M 14.462891 6C15.203891 6.826 15.718156 7.857 15.910156 9L39 9L39 28L25.746094 28 A 1.50015 1.50015 0 0 0 25.476562 27.978516 A 1.50015 1.50015 0 0 0 25.257812 28L16 28L16 31L24 31L24 36.220703L19.640625 39.271484 A 1.50015 1.50015 0 1 0 21.359375 41.728516L25.5 38.830078L29.640625 41.728516 A 1.50015 1.50015 0 1 0 31.359375 39.271484L27 36.220703L27 31L42.5 31C43.328 31 44 30.329 44 29.5C44 28.671 43.328 28 42.5 28L42 28L42 7.5C42 6.671 41.328 6 40.5 6L14.462891 6 z M 8 16C6.343 16 5 17.343 5 19L5 31L5 40.5 A 1.50015 1.50015 0 1 0 8 40.5L8 31L11 31L11 40.5 A 1.50015 1.50015 0 1 0 14 40.5L14 27.5L14 19L24.5 19 A 1.50015 1.50015 0 1 0 24.5 16L14 16L9 16L8 16 z"/></svg>